<svg width="414" height="414" viewBox="0 0 414 414" fill="none" xmlns="http://www.w3.org/2000/svg">
<rect width="414" height="414" rx="82" fill="#6440FB"/>
<path d="M181.067 308H97.2V272.267H136.933V151.733H181.067V308Z" fill="white"/>
<path d="M253.404 237.441H243.004V194.107H253.404C258.115 194.107 262.337 195.352 266.07 197.841C269.804 200.241 271.67 204.33 271.67 210.107V219.441C271.67 224.33 270.204 228.552 267.27 232.107C264.337 235.663 259.715 237.441 253.404 237.441ZM269.804 147.307V150.641C269.804 156.507 268.426 161.485 265.67 165.574C262.915 169.574 258.959 171.574 253.804 171.574H243.004V133.041H252.737C258.248 133.041 262.47 134.107 265.404 136.241C268.337 138.285 269.804 141.974 269.804 147.307ZM262.47 264.774C272.159 264.774 280.604 263.574 287.804 261.174C295.004 258.774 300.693 255.441 304.87 251.174C309.137 246.818 312.293 241.885 314.337 236.374C316.381 230.774 317.404 224.552 317.404 217.707C317.404 194.952 306.915 182.641 285.937 180.774C294.204 179.085 300.515 174.863 304.87 168.107C309.226 161.352 311.404 153.263 311.404 143.841C311.404 137.707 310.515 132.418 308.737 127.974C307.048 123.53 304.159 119.618 300.07 116.241C295.981 112.863 290.337 110.33 283.137 108.641C276.026 106.952 267.27 106.107 256.87 106.107C253.67 106.107 248.47 106.33 241.27 106.774C234.07 107.13 227.67 107.307 222.07 107.307H199.004V263.574H211.804C216.604 263.663 224.515 263.885 235.537 264.241C246.559 264.596 255.537 264.774 262.47 264.774Z" fill="white"/>
</svg>
